<svg width="12" height="12" viewBox="0 0 12 12" fill="none" xmlns="http://www.w3.org/2000/svg">
<path d="M4.7998 0.5C7.17456 0.5 9.0995 2.42507 9.09961 4.7998C9.09961 5.81543 8.74857 6.74777 8.16016 7.4834L7.87988 7.83301L11.2236 11.1768C11.23 11.1833 11.2334 11.1917 11.2334 11.2002L11.2236 11.2236C11.2106 11.2365 11.1898 11.2364 11.1768 11.2236L7.83301 7.87988L7.4834 8.16016C6.74777 8.74857 5.81543 9.09961 4.7998 9.09961C2.42507 9.0995 0.5 7.17456 0.5 4.7998C0.500106 2.42514 2.42514 0.500106 4.7998 0.5ZM4.7998 0.566406C2.46195 0.566512 0.566512 2.46195 0.566406 4.7998C0.566406 7.13775 2.46189 9.0331 4.7998 9.0332C7.13781 9.0332 9.0332 7.13781 9.0332 4.7998C9.0331 2.46189 7.13775 0.566406 4.7998 0.566406Z" fill="#09090B" stroke="#09090B"/>
</svg>
